<?xml version="1.0" standalone="no"?>
<!DOCTYPE svg PUBLIC "-//W3C//DTD SVG 20010904//EN"
 "http://www.w3.org/TR/2001/REC-SVG-20010904/DTD/svg10.dtd">
<svg version="1.0" xmlns="http://www.w3.org/2000/svg"
 width="300.000000pt" height="300.000000pt" viewBox="0 0 300.000000 300.000000"
 preserveAspectRatio="xMidYMid meet">
<metadata>
Created by potrace 1.11, written by Peter Selinger 2001-2013
</metadata>
<g transform="translate(0.000000,300.000000) scale(0.100000,-0.100000)"
fill="#000000" stroke="none">
<path d="M0 1500 l0 -1500 1500 0 1500 0 0 668 c0 521 -3 671 -12 681 -10 11
-10 13 0 7 9 -6 12 161 12 818 l0 826 -1500 0 -1500 0 0 -1500z m173 1340 c4
-4 1 -7 -8 -7 -8 0 -15 4 -15 9 0 5 -4 6 -10 3 -5 -3 -10 -1 -10 5 0 6 -4 9
-9 6 -5 -4 -11 -3 -13 1 -1 5 -20 16 -40 25 -21 10 -38 22 -38 28 0 8 120 -50
143 -70z m41 -18 c3 -5 -1 -9 -9 -9 -8 0 -15 4 -15 9 0 4 4 8 9 8 6 0 12 -4
15 -8z m199 -109 c64 -35 117 -67 117 -70 0 -2 -44 19 -97 48 -54 30 -121 65
-150 79 -29 14 -53 28 -53 33 0 9 23 -2 183 -90z m257 -135 c0 -5 7 -8 15 -8
8 0 15 -5 15 -10 0 -6 -18 -1 -40 10 -43 22 -57 46 -15 27 14 -7 25 -15 25
-19z m2016 -1066 c-4 -3 -14 2 -24 12 -16 18 -16 18 6 6 13 -6 21 -14 18 -18z
m44 -23 c0 -4 -7 -6 -15 -3 -8 4 -15 10 -15 15 0 4 7 6 15 3 8 -4 15 -10 15
-15z m156 -81 c3 -5 -26 7 -64 26 -39 20 -74 40 -77 47 -4 6 25 -6 64 -26 39
-20 74 -41 77 -47z m39 -18 c3 -6 -1 -7 -9 -4 -18 7 -21 14 -7 14 6 0 13 -4
16 -10z"/>
</g>
</svg>
